<svg preserveAspectRatio="none" width="100%" height="100%" overflow="visible" style="display: block;" viewBox="0 0 25.2788 25.2788" fill="none" xmlns="http://www.w3.org/2000/svg">
<path id="Combined Shape" d="M12.6394 10.8716L23.1449 0.366117C23.633 -0.122039 24.4245 -0.122039 24.9127 0.366117C25.4008 0.854272 25.4008 1.64573 24.9127 2.13388L14.4072 12.6394L24.9127 23.1449C25.4008 23.633 25.4008 24.4245 24.9127 24.9127C24.4245 25.4008 23.633 25.4008 23.1449 24.9127L12.6394 14.4072L2.13388 24.9127C1.64573 25.4008 0.854272 25.4008 0.366117 24.9127C-0.122039 24.4245 -0.122039 23.633 0.366117 23.1449L10.8716 12.6394L0.366117 2.13388C-0.122039 1.64573 -0.122039 0.854272 0.366117 0.366117C0.854272 -0.122039 1.64573 -0.122039 2.13388 0.366117L12.6394 10.8716Z" fill="var(--fill-0, white)"/>
</svg>
