<svg preserveAspectRatio="none" width="100%" height="100%" overflow="visible" style="display: block;" viewBox="0 0 40 40" fill="none" xmlns="http://www.w3.org/2000/svg">
<g id="&#229;&#183;&#165;&#229;&#133;&#183;&#231;&#177;&#187;ToolL/ic-share-o.svg" clip-path="url(#clip0_2_80)">
<g id="&#229;&#183;&#165;&#229;&#133;&#183;&#231;&#177;&#187;ToolL/ic-share-o.svg_2">
</g>
<path id="&#232;&#129;&#148;&#233;&#155;&#134; 64" fill-rule="evenodd" clip-rule="evenodd" d="M13.8227 9.99999C13.3346 9.51218 13.3346 8.82177 13.3346 8.82177C13.3346 8.13106 13.8229 7.6428 13.8229 7.6428L18.2337 3.2324C18.9659 2.50019 20.0013 2.5 20.0013 2.5C21.0369 2.49998 21.769 3.2324 21.769 3.2324L26.1797 7.64283C26.6679 8.13123 26.6679 8.82173 26.6679 8.82173C26.668 9.51177 26.1798 9.99993 26.1798 9.99993C25.6916 10.4882 25.0013 10.4882 25.0013 10.4882C24.3111 10.4882 23.8229 9.99994 23.8229 9.99994L21.6679 7.84493V25.182C21.668 25.872 21.1798 26.3602 21.1798 26.3602C20.6916 26.8485 20.0012 26.8485 20.0012 26.8485C19.311 26.8484 18.823 26.3603 18.823 26.3603C18.3346 25.8725 18.3346 25.182 18.3346 25.182V7.84493L16.1796 9.99992C15.6914 10.4882 15.0012 10.4882 15.0012 10.4882C14.3108 10.4881 13.8227 9.99999 13.8227 9.99999ZM4.16797 31.432V19.2702C4.16779 17.2223 5.60435 15.7627 5.60435 15.7627C7.04084 14.3034 9.09327 14.2708 9.09327 14.2708L14.9803 14.2436L15.2314 14.2428V17.5745L9.14164 17.6036C8.45903 17.6146 7.98012 18.1012 7.98012 18.1012C7.50122 18.5876 7.50122 19.2702 7.50122 19.2702V31.432C7.50149 32.122 7.98979 32.6103 7.98979 32.6103C8.47766 33.0986 9.16793 33.0986 9.16793 33.0986H30.8346C31.5247 33.0985 32.0131 32.6102 32.0131 32.6102C32.5013 32.1223 32.5013 31.432 32.5013 31.432V19.2702C32.5013 18.5877 32.0224 18.1011 32.0224 18.1011C31.5434 17.6145 30.8657 17.6037 30.8657 17.6037L24.7305 17.5753V17.3234L24.7553 14.2436H25.0231L30.914 14.2709C32.9617 14.3032 34.3982 15.7627 34.3982 15.7627C35.8346 17.2224 35.8346 19.2702 35.8346 19.2702V31.432C35.8348 33.5025 34.3704 34.967 34.3704 34.967C32.9057 36.4318 30.8346 36.4318 30.8346 36.4318H9.16788C7.09681 36.4314 5.63242 34.967 5.63242 34.967C4.16797 33.5032 4.16797 31.432 4.16797 31.432Z" fill="var(--fill-0, #080808)"/>
</g>
<defs>
<clipPath id="clip0_2_80">
<rect width="40" height="40" fill="white"/>
</clipPath>
</defs>
</svg>
