<svg preserveAspectRatio="none" width="100%" height="100%" overflow="visible" style="display: block;" viewBox="0 0 18.15 33.0001" fill="none" xmlns="http://www.w3.org/2000/svg">
<g id="&#231;&#187;&#132; 101398" clip-path="url(#clip0_2_88)">
<g id="&#232;&#129;&#148;&#233;&#155;&#134; 156">
</g>
<path id="&#232;&#183;&#175;&#229;&#190;&#132; 3&#239;&#188;&#136;&#232;&#190;&#185;&#230;&#161;&#134;&#239;&#188;&#137;" d="M18.15 1.65C18.15 2.0876 17.9761 2.50729 17.6667 2.81672L2.81672 17.6667C2.50729 17.9761 2.0876 18.15 1.65 18.15C0.738729 18.15 0 17.4112 0 16.5C0 16.0624 0.173839 15.6427 0.483273 15.3333V15.3333L15.3326 0.483892V0.483892C15.6427 0.173839 16.0624 0 16.5 0C17.4112 0 18.15 0.738729 18.15 1.65Z" fill="var(--fill-0, black)"/>
<path id="&#232;&#183;&#175;&#229;&#190;&#132; 3&#239;&#188;&#136;&#232;&#190;&#185;&#230;&#161;&#134;&#239;&#188;&#137;_2" d="M17.6667 30.1834L2.81672 15.3334C2.50729 15.0239 2.0876 14.8501 1.65 14.8501C0.738729 14.8501 0 15.5888 0 16.5001C0 16.9377 0.173839 17.3574 0.483273 17.6668L15.3333 32.5168C15.6427 32.8262 16.0624 33.0001 16.5 33.0001C17.4112 33.0001 18.15 32.2613 18.15 31.3501C18.15 30.9125 17.9761 30.4928 17.6667 30.1834Z" fill="var(--fill-0, black)"/>
</g>
<defs>
<clipPath id="clip0_2_88">
<rect width="18.15" height="33.0001" fill="white"/>
</clipPath>
</defs>
</svg>
