<svg preserveAspectRatio="none" width="100%" height="100%" overflow="visible" style="display: block;" viewBox="0 0 654 128" fill="none" xmlns="http://www.w3.org/2000/svg">
<path id="path-1" d="M19.1086 0L634.891 0C641.536 0 643.945 0.742605 646.374 2.13706C648.804 3.53152 650.71 5.57783 652.009 8.18523C653.308 10.7926 654 13.3789 654 20.5111V107.489C654 114.621 653.308 117.207 652.009 119.815C650.71 122.422 648.804 124.468 646.374 125.863C643.945 127.257 641.536 128 634.891 128H19.1086C12.4641 128 10.0547 127.257 7.62556 125.863C5.19644 124.468 3.29005 122.422 1.99094 119.815C0.691828 117.207 0 114.621 0 107.489V20.5111C0 13.3789 0.691828 10.7926 1.99094 8.18523C3.29005 5.57783 5.19644 3.53152 7.62556 2.13706C10.0547 0.742605 12.4641 0 19.1086 0Z" fill="var(--fill-0, #FFF9F0)"/>
</svg>
