<svg preserveAspectRatio="none" width="100%" height="100%" overflow="visible" style="display: block;" viewBox="0 0 30.6666 22" fill="none" xmlns="http://www.w3.org/2000/svg">
<path id="Wifi" fill-rule="evenodd" clip-rule="evenodd" d="M15.3341 4.56895C19.7836 4.56915 24.0629 6.27737 27.2876 9.34056C27.5305 9.57704 27.9186 9.57406 28.1578 9.33387L30.479 6.99321C30.6001 6.87138 30.6676 6.70636 30.6666 6.53467C30.6656 6.36297 30.5961 6.19875 30.4736 6.07835C22.0098 -2.02612 8.65714 -2.02612 0.193313 6.07835C0.0707088 6.19866 0.00114455 6.36283 1.39972e-05 6.53453C-0.00111655 6.70622 0.0662798 6.87129 0.187289 6.99321L2.50918 9.33387C2.74819 9.57442 3.13662 9.57741 3.37931 9.34056C6.60442 6.27717 10.8842 4.56894 15.3341 4.56895ZM15.3342 12.1841C17.7788 12.184 20.1363 13.0919 21.9484 14.7314C22.1935 14.9641 22.5796 14.9591 22.8186 14.7201L25.1371 12.3794C25.2592 12.2566 25.327 12.0901 25.3252 11.917C25.3234 11.7439 25.2523 11.5788 25.1277 11.4585C19.6094 6.3297 11.0636 6.3297 5.54526 11.4585C5.42061 11.5788 5.34949 11.744 5.34785 11.9171C5.34622 12.0903 5.4142 12.2568 5.53656 12.3794L7.85443 14.7201C8.09336 14.9591 8.47946 14.9641 8.72456 14.7314C10.5355 13.093 12.8911 12.1851 15.3342 12.1841ZM19.9786 17.3078C19.9821 17.4814 19.9139 17.6487 19.7899 17.7703L15.7793 21.8143C15.6617 21.9331 15.5014 22 15.3342 22C15.1669 22 15.0066 21.9331 14.8891 21.8143L10.8778 17.7703C10.7539 17.6486 10.6857 17.4812 10.6894 17.3077C10.693 17.1341 10.7682 16.9697 10.8972 16.8534C13.4585 14.6889 17.2098 14.6889 19.7711 16.8534C19.9 16.9698 19.975 17.1342 19.9786 17.3078Z" fill="var(--fill-0, black)"/>
</svg>
